<?xml version="1.0" encoding="UTF-8"?>
<svg width="543px" height="116px" viewBox="0 0 543 116" version="1.1" xmlns="http://www.w3.org/2000/svg" xmlns:xlink="http://www.w3.org/1999/xlink">
    <title>Group 19</title>
    <defs>
        <polygon id="path-1" points="0 0.8662 63.5157 0.8662 63.5157 90 0 90"></polygon>
        <polygon id="path-3" points="0.9655 0.8664 66.197 0.8664 66.197 62.5334 0.9655 62.5334"></polygon>
        <polygon id="path-5" points="0.7087 0.513 18.5357 0.513 18.5357 17.2836 0.7087 17.2836"></polygon>
        <polygon id="path-7" points="0 115.487 542.197 115.487 542.197 1 0 1"></polygon>
    </defs>
    <g id="Page-1" stroke="none" stroke-width="1" fill="none" fill-rule="evenodd">
        <g id="Group-19">
            <path d="M165.4592,26.3531 C151.4272,26.3531 139.1392,34.3061 134.4292,46.0551 C129.9782,34.0021 117.6252,25.9911 103.3952,26.3531 C84.1152,26.3531 70.3832,39.1621 70.3832,57.1211 C70.3832,75.2111 84.1152,88.0201 103.3952,88.0201 C117.5852,88.2611 129.9092,80.2881 134.3932,68.3911 C139.0372,80.0551 151.5832,88.0201 165.9862,88.0201 C185.0022,88.0201 198.4712,75.2111 198.4712,57.1211 C198.4712,38.6341 184.7382,25.8251 165.4592,26.3531 M103.3952,72.8351 C90.4542,72.8351 81.2112,66.3641 81.2112,57.1211 C81.2112,48.0091 90.4542,41.5391 103.3952,41.5391 C116.7322,41.5391 126.1072,48.0091 126.1072,57.1211 C126.1072,66.3641 116.7322,72.8351 103.3952,72.8351 M165.4592,72.8351 C152.2542,72.8351 142.8782,66.3641 142.8782,57.1211 C142.8782,48.0091 152.2542,41.5391 165.4592,41.5391 C178.3992,41.5391 187.6432,48.0091 187.6432,57.1211 C187.6432,66.3641 178.3992,72.8351 165.4592,72.8351" id="Fill-1" fill="#000000"></path>
            <g id="Group-5" transform="translate(0.000000, 25.487000)">
                <mask id="mask-2" fill="white">
                    <use xlink:href="#path-1"></use>
                </mask>
                <g id="Clip-4"></g>
                <path d="M52.6877,11.3002 C48.9077,5.0062 40.3747,0.8662 30.8997,0.8662 C12.6767,0.8662 -0.0003,13.6752 -0.0003,31.6332 C-0.0003,49.7242 12.5447,62.5332 30.7677,62.5332 C40.4077,62.5332 48.5937,58.8362 52.5557,52.4982 L52.5557,61.0812 C52.5557,72.1732 44.6327,75.4742 33.0127,75.4742 C19.9397,75.4742 12.9407,71.9092 12.4127,64.9102 L2.1127,64.9102 C2.2447,81.1532 15.4497,90.0002 33.2767,90.0002 C53.2157,90.0002 63.5157,80.0962 63.5157,61.8732 L63.5157,2.7152 L52.6877,2.7152 L52.6877,11.3002 Z M31.5597,47.3482 C19.1477,47.3482 10.8287,40.8772 10.8287,31.6332 C10.8287,22.5222 19.1477,16.0522 31.5597,16.0522 C44.1047,16.0522 52.8197,22.5222 52.8197,31.6332 C52.8197,40.8772 44.1047,47.3482 31.5597,47.3482 L31.5597,47.3482 Z" id="Fill-3" fill="#000000" mask="url(#mask-2)"></path>
            </g>
            <path d="M447.385,26.3531 C436.558,26.3531 427.05,31.1071 421.503,39.5581 C418.994,31.1071 411.732,26.3531 400.508,26.3531 C389.547,26.3531 380.7,30.7111 375.418,38.5021 L375.418,28.2021 L364.987,28.2021 L364.987,86.1721 L375.815,86.1721 L375.815,62.1391 C375.815,49.0661 383.209,41.5391 396.414,41.5391 C406.978,41.5391 412.393,46.6891 412.393,57.2531 L412.393,86.1721 L423.22,86.1721 L423.22,60.2901 C423.22,48.1421 430.879,41.5391 443.292,41.5391 C453.856,41.5391 459.27,46.6891 459.27,57.2531 L459.27,86.1721 L470.098,86.1721 L470.098,51.3111 C470.098,35.2011 462.175,26.3531 447.385,26.3531" id="Fill-6" fill="#000000"></path>
            <path d="M257.1018,36.7022 C252.5428,29.9772 244.8378,26.3532 234.3888,26.3532 C216.8268,26.3532 204.4138,39.1622 204.4138,57.2532 C204.4138,75.2112 216.4298,88.0202 233.4648,88.0202 C244.2738,88.0202 252.4308,84.1942 257.1018,76.6332 L257.1018,86.1722 L267.9298,86.1722 L267.9298,4.4322 L257.1018,4.4322 L257.1018,36.7022 Z M235.9738,72.8352 C223.6928,72.8352 215.2418,66.3642 215.2418,57.1202 C215.2418,48.0092 223.6928,41.5392 235.9738,41.5392 C248.5178,41.5392 257.3658,48.0092 257.3658,57.1202 C257.3658,66.3642 248.5178,72.8352 235.9738,72.8352 L235.9738,72.8352 Z" id="Fill-8" fill="#000000"></path>
            <g id="Group-12" transform="translate(476.000000, 25.487000)">
                <mask id="mask-4" fill="white">
                    <use xlink:href="#path-3"></use>
                </mask>
                <g id="Clip-11"></g>
                <path d="M66.1975,30.3134 C66.1975,13.0154 53.1245,0.8664 34.5055,0.8664 C14.8305,0.8664 0.9655,13.6754 0.9655,31.6334 C0.9655,49.7244 15.2255,62.5334 35.2985,62.5334 C52.4645,62.5334 65.5375,53.5544 66.0655,40.8774 L55.1055,40.8774 C54.1805,46.1594 43.8815,48.1404 35.2985,48.1404 C22.1995,48.1404 14.1685,43.9184 12.1345,35.8594 L66.1975,35.8594 L66.1975,30.3134 Z M33.9765,15.6554 C46.6745,15.6554 54.4465,19.7414 55.4395,26.8804 L12.2495,26.8804 C14.5095,19.8114 22.4615,15.6554 33.9765,15.6554 L33.9765,15.6554 Z" id="Fill-10" fill="#000000" mask="url(#mask-4)"></path>
            </g>
            <g id="Group-15" transform="translate(338.000000, 0.487000)">
                <mask id="mask-6" fill="white">
                    <use xlink:href="#path-5"></use>
                </mask>
                <g id="Clip-14"></g>
                <path d="M9.6877,0.5126 C4.6697,0.5126 0.7087,4.0776 0.7087,8.9636 C0.7087,13.7176 4.6697,17.2836 9.6877,17.2836 C14.5737,17.2836 18.5357,13.7176 18.5357,8.9636 C18.5357,4.0776 14.5737,0.5126 9.6877,0.5126" id="Fill-13" fill="#000000" mask="url(#mask-6)"></path>
            </g>
            <mask id="mask-8" fill="white">
                <use xlink:href="#path-7"></use>
            </mask>
            <g id="Clip-17"></g>
            <polygon id="Fill-16" fill="#000000" mask="url(#mask-8)" points="342.274 86.172 353.102 86.172 353.102 28.202 342.274 28.202"></polygon>
            <path d="M316.7883,13.6763 L305.9603,13.6763 L305.9603,28.2013 L295.2643,28.2013 L295.2643,42.8593 L305.9603,42.8593 L305.9603,70.3253 C305.9603,82.8703 309.7893,86.1723 325.1073,86.1723 L331.4453,86.1723 L331.4453,72.1743 L329.3323,72.1743 C319.0323,72.1743 316.7883,70.8543 316.7883,63.3273 L316.7883,42.8593 L331.4453,42.8593 L331.4453,28.2013 L316.7883,28.2013 L316.7883,13.6763 Z" id="Fill-18" fill="#000000" mask="url(#mask-8)"></path>
        </g>
    </g>
</svg>